<svg xmlns="http://www.w3.org/2000/svg" viewBox="0 0 520 260" width="520" height="260" role="img" aria-label="Attention Is All You Need, 2017">
    <rect width="520" height="260" fill="#f4f2ec"/>
    <rect x="0" y="0" width="520" height="10" fill="#d9ff62"/>
    <g transform="translate(0, 12)"><rect x="146" y="30" width="28" height="18" rx="3" fill="#d9ff62" opacity="0.55" stroke="#15271f" stroke-width=".8"/><rect x="178" y="30" width="28" height="18" rx="3" fill="#d9ff62" opacity="0.54" stroke="#15271f" stroke-width=".8"/><rect x="210" y="30" width="28" height="18" rx="3" fill="#d9ff62" opacity="0.25" stroke="#15271f" stroke-width=".8"/><rect x="242" y="30" width="28" height="18" rx="3" fill="#d9ff62" opacity="0.09" stroke="#15271f" stroke-width=".8"/><rect x="274" y="30" width="28" height="18" rx="3" fill="#d9ff62" opacity="0.00" stroke="#15271f" stroke-width=".8"/><rect x="306" y="30" width="28" height="18" rx="3" fill="#d9ff62" opacity="0.00" stroke="#15271f" stroke-width=".8"/><rect x="338" y="30" width="28" height="18" rx="3" fill="#d9ff62" opacity="0.00" stroke="#15271f" stroke-width=".8"/><rect x="146" y="52" width="28" height="18" rx="3" fill="#d9ff62" opacity="0.60" stroke="#15271f" stroke-width=".8"/><rect x="178" y="52" width="28" height="18" rx="3" fill="#d9ff62" opacity="0.88" stroke="#15271f" stroke-width=".8"/><rect x="210" y="52" width="28" height="18" rx="3" fill="#d9ff62" opacity="0.65" stroke="#15271f" stroke-width=".8"/><rect x="242" y="52" width="28" height="18" rx="3" fill="#d9ff62" opacity="0.26" stroke="#15271f" stroke-width=".8"/><rect x="274" y="52" width="28" height="18" rx="3" fill="#d9ff62" opacity="0.07" stroke="#15271f" stroke-width=".8"/><rect x="306" y="52" width="28" height="18" rx="3" fill="#d9ff62" opacity="0.00" stroke="#15271f" stroke-width=".8"/><rect x="338" y="52" width="28" height="18" rx="3" fill="#d9ff62" opacity="0.00" stroke="#15271f" stroke-width=".8"/><rect x="146" y="74" width="28" height="18" rx="3" fill="#d9ff62" opacity="0.39" stroke="#15271f" stroke-width=".8"/><rect x="178" y="74" width="28" height="18" rx="3" fill="#d9ff62" opacity="0.47" stroke="#15271f" stroke-width=".8"/><rect x="210" y="74" width="28" height="18" rx="3" fill="#d9ff62" opacity="0.92" stroke="#15271f" stroke-width=".8"/><rect x="242" y="74" width="28" height="18" rx="3" fill="#d9ff62" opacity="0.66" stroke="#15271f" stroke-width=".8"/><rect x="274" y="74" width="28" height="18" rx="3" fill="#d9ff62" opacity="0.26" stroke="#15271f" stroke-width=".8"/><rect x="306" y="74" width="28" height="18" rx="3" fill="#d9ff62" opacity="0.08" stroke="#15271f" stroke-width=".8"/><rect x="338" y="74" width="28" height="18" rx="3" fill="#d9ff62" opacity="0.00" stroke="#15271f" stroke-width=".8"/><rect x="146" y="96" width="28" height="18" rx="3" fill="#d9ff62" opacity="0.09" stroke="#15271f" stroke-width=".8"/><rect x="178" y="96" width="28" height="18" rx="3" fill="#d9ff62" opacity="0.37" stroke="#15271f" stroke-width=".8"/><rect x="210" y="96" width="28" height="18" rx="3" fill="#d9ff62" opacity="0.50" stroke="#15271f" stroke-width=".8"/><rect x="242" y="96" width="28" height="18" rx="3" fill="#d9ff62" opacity="0.59" stroke="#15271f" stroke-width=".8"/><rect x="274" y="96" width="28" height="18" rx="3" fill="#d9ff62" opacity="0.69" stroke="#15271f" stroke-width=".8"/><rect x="306" y="96" width="28" height="18" rx="3" fill="#d9ff62" opacity="0.25" stroke="#15271f" stroke-width=".8"/><rect x="338" y="96" width="28" height="18" rx="3" fill="#d9ff62" opacity="0.11" stroke="#15271f" stroke-width=".8"/><rect x="146" y="118" width="28" height="18" rx="3" fill="#d9ff62" opacity="0.00" stroke="#15271f" stroke-width=".8"/><rect x="178" y="118" width="28" height="18" rx="3" fill="#d9ff62" opacity="0.07" stroke="#15271f" stroke-width=".8"/><rect x="210" y="118" width="28" height="18" rx="3" fill="#d9ff62" opacity="0.25" stroke="#15271f" stroke-width=".8"/><rect x="242" y="118" width="28" height="18" rx="3" fill="#d9ff62" opacity="0.66" stroke="#15271f" stroke-width=".8"/><rect x="274" y="118" width="28" height="18" rx="3" fill="#d9ff62" opacity="0.94" stroke="#15271f" stroke-width=".8"/><rect x="306" y="118" width="28" height="18" rx="3" fill="#d9ff62" opacity="0.46" stroke="#15271f" stroke-width=".8"/><rect x="338" y="118" width="28" height="18" rx="3" fill="#d9ff62" opacity="0.41" stroke="#15271f" stroke-width=".8"/><rect x="146" y="140" width="28" height="18" rx="3" fill="#d9ff62" opacity="0.00" stroke="#15271f" stroke-width=".8"/><rect x="178" y="140" width="28" height="18" rx="3" fill="#d9ff62" opacity="0.00" stroke="#15271f" stroke-width=".8"/><rect x="210" y="140" width="28" height="18" rx="3" fill="#d9ff62" opacity="0.08" stroke="#15271f" stroke-width=".8"/><rect x="242" y="140" width="28" height="18" rx="3" fill="#d9ff62" opacity="0.23" stroke="#15271f" stroke-width=".8"/><rect x="274" y="140" width="28" height="18" rx="3" fill="#d9ff62" opacity="0.45" stroke="#15271f" stroke-width=".8"/><rect x="306" y="140" width="28" height="18" rx="3" fill="#d9ff62" opacity="0.63" stroke="#15271f" stroke-width=".8"/><rect x="338" y="140" width="28" height="18" rx="3" fill="#d9ff62" opacity="0.41" stroke="#15271f" stroke-width=".8"/><rect x="146" y="162" width="28" height="18" rx="3" fill="#d9ff62" opacity="0.00" stroke="#15271f" stroke-width=".8"/><rect x="178" y="162" width="28" height="18" rx="3" fill="#d9ff62" opacity="0.00" stroke="#15271f" stroke-width=".8"/><rect x="210" y="162" width="28" height="18" rx="3" fill="#d9ff62" opacity="0.00" stroke="#15271f" stroke-width=".8"/><rect x="242" y="162" width="28" height="18" rx="3" fill="#d9ff62" opacity="0.12" stroke="#15271f" stroke-width=".8"/><rect x="274" y="162" width="28" height="18" rx="3" fill="#d9ff62" opacity="0.32" stroke="#15271f" stroke-width=".8"/><rect x="306" y="162" width="28" height="18" rx="3" fill="#d9ff62" opacity="0.49" stroke="#15271f" stroke-width=".8"/><rect x="338" y="162" width="28" height="18" rx="3" fill="#d9ff62" opacity="1.00" stroke="#15271f" stroke-width=".8"/></g>
    <g transform="translate(34, 224)">
        <text font-family="ui-monospace, SFMono-Regular, Menlo, monospace" font-size="30" font-weight="700" fill="#15271f" y="0">2017</text>
        <text x="112" y="-11" font-family="Georgia, 'Times New Roman', serif" font-size="14" fill="#15271f" opacity=".82">Attention Is All You Need</text>
    </g>
</svg>
