<svg xmlns="http://www.w3.org/2000/svg" viewBox="0 0 520 260" width="1040" height="520" role="img" aria-label="Spark and the RDD, 2012">
<rect width="520" height="260" fill="#f4f2ec"/>
<rect width="520" height="10" fill="#ffcbb2"/>
<rect x="38" y="63" width="88" height="75" rx="6" fill="#f4f2ec" stroke="#15271f" stroke-width="2.5"/><rect x="48" y="77" width="19" height="18" rx="2" fill="#ffcbb2" stroke="#15271f" stroke-width="1.4"/><rect x="70" y="77" width="19" height="18" rx="2" fill="#ffcbb2" stroke="#15271f" stroke-width="1.4"/><rect x="92" y="77" width="19" height="18" rx="2" fill="#ffcbb2" stroke="#15271f" stroke-width="1.4"/><rect x="48" y="99" width="19" height="18" rx="2" fill="#ffcbb2" stroke="#15271f" stroke-width="1.4"/><rect x="70" y="99" width="19" height="18" rx="2" fill="#ffcbb2" stroke="#15271f" stroke-width="1.4"/><rect x="92" y="99" width="19" height="18" rx="2" fill="#ffcbb2" stroke="#15271f" stroke-width="1.4"/><line x1="126" y1="101" x2="149" y2="101" stroke="#15271f" stroke-width="2" /><path d="M143 96 l6 5 -6 5" fill="none" stroke="#15271f" stroke-width="2" stroke-linecap="round" stroke-linejoin="round"/><rect x="155" y="63" width="88" height="75" rx="6" fill="#f4f2ec" stroke="#15271f" stroke-width="2.5"/><rect x="165" y="77" width="19" height="18" rx="2" fill="#ffcbb2" stroke="#15271f" stroke-width="1.4"/><rect x="187" y="77" width="19" height="18" rx="2" fill="#ffcbb2" stroke="#15271f" stroke-width="1.4"/><rect x="209" y="77" width="19" height="18" rx="2" fill="#ffcbb2" stroke="#15271f" stroke-width="1.4"/><rect x="165" y="99" width="19" height="18" rx="2" fill="#ffcbb2" stroke="#15271f" stroke-width="1.4"/><rect x="187" y="99" width="19" height="18" rx="2" fill="#ffcbb2" stroke="#15271f" stroke-width="1.4"/><rect x="209" y="99" width="19" height="18" rx="2" fill="#ffcbb2" stroke="#15271f" stroke-width="1.4"/><line x1="243" y1="101" x2="266" y2="101" stroke="#15271f" stroke-width="2" /><path d="M260 96 l6 5 -6 5" fill="none" stroke="#15271f" stroke-width="2" stroke-linecap="round" stroke-linejoin="round"/><rect x="272" y="63" width="88" height="75" rx="6" fill="#f4f2ec" stroke="#15271f" stroke-width="2.5"/><rect x="282" y="77" width="19" height="18" rx="2" fill="#ffcbb2" stroke="#15271f" stroke-width="1.4"/><rect x="304" y="77" width="19" height="18" rx="2" fill="#ffcbb2" stroke="#15271f" stroke-width="1.4"/><rect x="326" y="77" width="19" height="18" rx="2" fill="#ffcbb2" stroke="#15271f" stroke-width="1.4"/><rect x="282" y="99" width="19" height="18" rx="2" fill="#ffcbb2" stroke="#15271f" stroke-width="1.4"/><rect x="304" y="99" width="19" height="18" rx="2" fill="#f4f2ec" stroke="#15271f" stroke-width="1.4"/><rect x="326" y="99" width="19" height="18" rx="2" fill="#ffcbb2" stroke="#15271f" stroke-width="1.4"/><line x1="360" y1="101" x2="383" y2="101" stroke="#15271f" stroke-width="2" /><path d="M377 96 l6 5 -6 5" fill="none" stroke="#15271f" stroke-width="2" stroke-linecap="round" stroke-linejoin="round"/><rect x="389" y="63" width="88" height="75" rx="6" fill="#f4f2ec" stroke="#15271f" stroke-width="2.5"/><rect x="399" y="77" width="19" height="18" rx="2" fill="#ffcbb2" stroke="#15271f" stroke-width="1.4"/><rect x="421" y="77" width="19" height="18" rx="2" fill="#ffcbb2" stroke="#15271f" stroke-width="1.4"/><rect x="443" y="77" width="19" height="18" rx="2" fill="#ffcbb2" stroke="#15271f" stroke-width="1.4"/><rect x="399" y="99" width="19" height="18" rx="2" fill="#ffcbb2" stroke="#15271f" stroke-width="1.4"/><rect x="421" y="99" width="19" height="18" rx="2" fill="#ffcbb2" stroke="#15271f" stroke-width="1.4"/><rect x="443" y="99" width="19" height="18" rx="2" fill="#ffcbb2" stroke="#15271f" stroke-width="1.4"/><rect x="204" y="32" width="23" height="18" rx="2" fill="#ffcbb2" stroke="#15271f" stroke-width="2"/><line x1="209" y1="28" x2="209" y2="32" stroke="#15271f" stroke-width="2" /><line x1="209" y1="50" x2="209" y2="54" stroke="#15271f" stroke-width="2" /><line x1="215" y1="28" x2="215" y2="32" stroke="#15271f" stroke-width="2" /><line x1="215" y1="50" x2="215" y2="54" stroke="#15271f" stroke-width="2" /><line x1="221" y1="28" x2="221" y2="32" stroke="#15271f" stroke-width="2" /><line x1="221" y1="50" x2="221" y2="54" stroke="#15271f" stroke-width="2" /><text x="249" y="46" fill="#15271f" font-family="ui-monospace, SFMono-Regular, Menlo, monospace" font-size="11" text-anchor="start">memory</text><path d="M179 151 C230 188, 284 188, 331 150" fill="none" stroke="#15271f" stroke-width="2" stroke-linecap="round" stroke-linejoin="round"/><path d="M323 148 l9 2 -5 8" fill="none" stroke="#15271f" stroke-width="2" stroke-linecap="round" stroke-linejoin="round"/><text x="260" y="177" fill="#15271f" font-family="ui-monospace, SFMono-Regular, Menlo, monospace" font-size="10" text-anchor="middle">lineage</text><path d="M304 115 l15 17 M319 115 l-15 17" fill="none" stroke="#15271f" stroke-width="1.8" stroke-linecap="round" stroke-linejoin="round"/>
<text x="34" y="226" fill="#15271f" font-family="ui-monospace, SFMono-Regular, Menlo, monospace" font-weight="700" font-size="30">2012</text>
<text x="146" y="215" fill="#15271f" font-family="Georgia, 'Times New Roman', serif" font-size="14">Spark and the RDD</text>
</svg>
