<svg xmlns="http://www.w3.org/2000/svg" viewBox="0 0 520 260" width="1040" height="520" role="img" aria-label="Snowflake, 2015">
<rect width="520" height="260" fill="#f4f2ec"/>
<rect width="520" height="10" fill="#b8d9ff"/>
<rect x="64" y="137" width="393" height="39" rx="3" fill="#f4f2ec" stroke="#15271f" stroke-width="2.5"/><rect x="74" y="146" width="32" height="21" rx="1" fill="#b8d9ff" stroke="#15271f" stroke-width="1"/><rect x="112" y="146" width="32" height="21" rx="1" fill="#f4f2ec" stroke="#15271f" stroke-width="1"/><rect x="150" y="146" width="32" height="21" rx="1" fill="#f4f2ec" stroke="#15271f" stroke-width="1"/><rect x="188" y="146" width="32" height="21" rx="1" fill="#b8d9ff" stroke="#15271f" stroke-width="1"/><rect x="226" y="146" width="32" height="21" rx="1" fill="#f4f2ec" stroke="#15271f" stroke-width="1"/><rect x="264" y="146" width="32" height="21" rx="1" fill="#f4f2ec" stroke="#15271f" stroke-width="1"/><rect x="302" y="146" width="32" height="21" rx="1" fill="#b8d9ff" stroke="#15271f" stroke-width="1"/><rect x="340" y="146" width="32" height="21" rx="1" fill="#f4f2ec" stroke="#15271f" stroke-width="1"/><rect x="378" y="146" width="32" height="21" rx="1" fill="#f4f2ec" stroke="#15271f" stroke-width="1"/><rect x="416" y="146" width="32" height="21" rx="1" fill="#b8d9ff" stroke="#15271f" stroke-width="1"/><rect x="94" y="83" width="94" height="43" rx="3" fill="#b8d9ff" stroke="#15271f" stroke-width="2.5"/><rect x="207" y="83" width="94" height="43" rx="3" fill="#f4f2ec" stroke="#15271f" stroke-width="2.5"/><rect x="320" y="83" width="94" height="43" rx="3" fill="#b8d9ff" stroke="#15271f" stroke-width="2.5"/><rect x="117" y="39" width="286" height="31" rx="3" fill="#f4f2ec" stroke="#15271f" stroke-width="2.5"/><circle cx="188" cy="54" r="5" fill="#b8d9ff" stroke="#15271f" stroke-width="1"/><circle cx="233" cy="54" r="5" fill="#b8d9ff" stroke="#15271f" stroke-width="1"/><line x1="188" y1="54" x2="233" y2="54" stroke="#15271f" stroke-width="1" /><circle cx="278" cy="54" r="5" fill="#b8d9ff" stroke="#15271f" stroke-width="1"/><line x1="233" y1="54" x2="278" y2="54" stroke="#15271f" stroke-width="1" /><circle cx="323" cy="54" r="5" fill="#b8d9ff" stroke="#15271f" stroke-width="1"/><line x1="278" y1="54" x2="323" y2="54" stroke="#15271f" stroke-width="1" /><text x="50" y="34" fill="#15271f" font-family="ui-monospace, SFMono-Regular, Menlo, monospace" font-size="10" text-anchor="start">services</text><text x="50" y="105" fill="#15271f" font-family="ui-monospace, SFMono-Regular, Menlo, monospace" font-size="10" text-anchor="start">compute</text><text x="50" y="159" fill="#15271f" font-family="ui-monospace, SFMono-Regular, Menlo, monospace" font-size="10" text-anchor="start">storage</text><text x="254" y="109" fill="#15271f" font-family="ui-monospace, SFMono-Regular, Menlo, monospace" font-size="9" text-anchor="middle">paused</text>
<text x="34" y="226" fill="#15271f" font-family="ui-monospace, SFMono-Regular, Menlo, monospace" font-weight="700" font-size="30">2015</text>
<text x="146" y="215" fill="#15271f" font-family="Georgia, 'Times New Roman', serif" font-size="14">Snowflake</text>
</svg>
